<svg xmlns="http://www.w3.org/2000/svg" xmlns:xlink="http://www.w3.org/1999/xlink" viewBox="0 0 400 400"><defs><style>.a,.ad,.ae,.af,.ag,.ah,.ai,.aj,.ak,.al,.am,.an,.ao,.ap,.aq,.ar,.as,.at,.au,.av,.aw,.ax,.ay,.az,.ba,.bb,.bc,.bd,.be{stroke:#000;}.a{stroke-miterlimit:10;stroke-width:3px;}.b{fill:url(#a);}.c{fill:url(#b);}.d{fill:url(#c);}.e{fill:url(#d);}.f{fill:url(#e);}.g{fill:url(#f);}.h{fill:url(#g);}.i{fill:url(#h);}.j{fill:url(#i);}.k{fill:url(#j);}.l{fill:url(#k);}.m{fill:url(#l);}.n{fill:url(#m);}.o{fill:url(#n);}.p{fill:url(#o);}.q{fill:url(#p);}.r{fill:url(#q);}.s{fill:url(#r);}.t{fill:url(#s);}.u{fill:url(#t);}.v{fill:url(#u);}.w{fill:url(#v);}.x{fill:url(#w);}.y{fill:url(#x);}.z{fill:url(#y);}.aa{fill:url(#z);}.ab{fill:url(#aa);}.ac{fill:url(#ab);}.ad,.ae,.af,.ag,.ah,.ai,.aj,.ak,.al,.am,.an,.ao,.ap,.aq,.ar,.as,.at,.au,.av,.aw,.ax,.ay,.az,.ba,.bb,.bc,.bd,.be{stroke-linecap:round;stroke-linejoin:round;}.ad{fill:url(#ac);}.ae{fill:url(#ad);}.af{fill:url(#ae);}.ag{fill:url(#af);}.ah,.av{stroke-width:1.11px;}.ah{fill:url(#ag);}.ai{fill:url(#ah);}.aj{fill:url(#ai);}.ak{fill:url(#aj);}.al,.az{stroke-width:0.94px;}.al{fill:url(#ak);}.am{fill:url(#al);}.an{fill:url(#am);}.ao{fill:url(#an);}.ap{fill:url(#ao);}.aq{fill:url(#ap);}.ar{fill:url(#aq);}.as{fill:url(#ar);}.at{fill:url(#as);}.au{fill:url(#at);}.av{fill:url(#au);}.aw{fill:url(#av);}.ax{fill:url(#aw);}.ay{fill:url(#ax);}.az{fill:url(#ay);}.ba{fill:url(#az);}.bb{fill:url(#ba);}.bc{fill:url(#bb);}.bd{fill:url(#bc);}.be{fill:url(#bd);}.bf{fill:url(#be);}.bg{fill:url(#bf);}</style><linearGradient id="a" x1="160.55" y1="1203.76" x2="160.55" y2="1173.09" gradientTransform="matrix(0.99, -0.13, 0.03, 0.82, 119.24, -826.22)" gradientUnits="userSpaceOnUse"><stop offset="0" stop-color="#e9e9eb"/><stop offset="1" stop-color="#575d63"/></linearGradient><linearGradient id="b" x1="277.67" y1="149.37" x2="277.67" y2="121.18" gradientTransform="matrix(1, 0, 0, 1, 0, 0)" xlink:href="#a"/><linearGradient id="c" x1="208.08" y1="-223.06" x2="208.08" y2="-247.64" gradientTransform="matrix(1.05, 0.01, -0.04, 1.12, 19.13, 406.33)" gradientUnits="userSpaceOnUse"><stop offset="0" stop-color="#fff"/><stop offset="1" stop-color="#575d63"/></linearGradient><linearGradient id="d" x1="275.79" y1="110.51" x2="275.79" y2="87.94" gradientTransform="matrix(1, 0, 0, 1, 0, 0)" xlink:href="#c"/><linearGradient id="e" x1="925.64" y1="63.16" x2="925.64" y2="43.12" gradientTransform="translate(-588.41 -21.6) rotate(7.58)" xlink:href="#c"/><linearGradient id="f" x1="253.23" y1="132.26" x2="253.23" y2="105.66" gradientTransform="matrix(1, 0, 0, 1, 0, 0)" xlink:href="#c"/><linearGradient id="g" x1="289.33" y1="178.33" x2="289.33" y2="153.36" gradientTransform="matrix(1, 0, 0, 1, 0, 0)" xlink:href="#c"/><linearGradient id="h" x1="-223.39" y1="202.12" x2="-223.39" y2="177.75" gradientTransform="translate(462.99 -43.6) rotate(-5.99)" xlink:href="#c"/><linearGradient id="i" x1="0.47" y1="230.85" x2="0.47" y2="202.4" gradientTransform="translate(234.06 -16.97) rotate(-3.04)" xlink:href="#c"/><linearGradient id="j" x1="314.96" y1="104.02" x2="314.96" y2="83.83" gradientTransform="matrix(1, 0, 0, 1, 0, 0)" xlink:href="#c"/><linearGradient id="k" x1="363.57" y1="200.61" x2="363.57" y2="110.59" gradientTransform="translate(-6.16 21.14) rotate(-3.36)" gradientUnits="userSpaceOnUse"><stop offset="0" stop-color="#fff"/><stop offset="0.19" stop-color="#fbfbfc"/><stop offset="0.36" stop-color="#f0f0f1"/><stop offset="0.54" stop-color="#dcdee0"/><stop offset="0.72" stop-color="#c1c4c8"/><stop offset="0.89" stop-color="#9ea4a9"/><stop offset="1" stop-color="#838a91"/></linearGradient><linearGradient id="l" x1="379.19" y1="124.03" x2="283.83" y2="62.1" gradientTransform="matrix(1, 0, 0, 1, 0, 0)" xlink:href="#k"/><linearGradient id="m" x1="-3792.28" y1="-5930.83" x2="-3857.75" y2="-5846.13" gradientTransform="matrix(0.38, -0.92, -0.92, -0.38, -3735.93, -5699.06)" gradientUnits="userSpaceOnUse"><stop offset="0" stop-color="#fff"/><stop offset="0.48" stop-color="#d7d7d7"/><stop offset="1" stop-color="#b0b0b0"/></linearGradient><linearGradient id="n" x1="-4968.61" y1="374.59" x2="-4968.61" y2="343.92" gradientTransform="matrix(-0.99, -0.13, -0.03, 0.82, -4823.36, -826.22)" xlink:href="#a"/><linearGradient id="o" x1="-4826.45" y1="149.37" x2="-4826.45" y2="121.18" gradientTransform="matrix(-1, 0, 0, 1, -4704.12, 0)" xlink:href="#a"/><linearGradient id="p" x1="-4634.21" y1="-160.02" x2="-4634.21" y2="-184.6" gradientTransform="matrix(-1.05, 0.01, 0.04, 1.12, -4723.24, 406.33)" xlink:href="#c"/><linearGradient id="q" x1="-4828.33" y1="110.51" x2="-4828.33" y2="87.94" gradientTransform="matrix(-1, 0, 0, 1, -4704.12, 0)" xlink:href="#c"/><linearGradient id="r" x1="-4133.93" y1="736.05" x2="-4133.93" y2="716.01" gradientTransform="matrix(-0.99, 0.13, 0.13, 0.99, -4115.71, -21.6)" xlink:href="#c"/><linearGradient id="s" x1="-4850.89" y1="132.26" x2="-4850.89" y2="105.66" gradientTransform="matrix(-1, 0, 0, 1, -4704.12, 0)" xlink:href="#c"/><linearGradient id="t" x1="-4814.79" y1="178.33" x2="-4814.79" y2="153.36" gradientTransform="matrix(-1, 0, 0, 1, -4704.12, 0)" xlink:href="#c"/><linearGradient id="u" x1="-5299.64" y1="-330.54" x2="-5299.64" y2="-354.92" gradientTransform="matrix(-0.99, -0.1, -0.1, 0.99, -5167.11, -43.6)" xlink:href="#c"/><linearGradient id="v" x1="-5096.45" y1="-40.09" x2="-5096.45" y2="-68.55" gradientTransform="matrix(-1, -0.05, -0.05, 1, -4938.17, -16.97)" xlink:href="#c"/><linearGradient id="w" x1="-4789.16" y1="104.02" x2="-4789.16" y2="83.83" gradientTransform="matrix(-1, 0, 0, 1, -4704.12, 0)" xlink:href="#c"/><linearGradient id="x" x1="-4740.53" y1="200.61" x2="-4740.53" y2="110.59" gradientTransform="matrix(-1, -0.06, -0.06, 1, -4689.68, -271.82)" xlink:href="#k"/><linearGradient id="y" x1="-4724.93" y1="124.03" x2="-4820.29" y2="62.1" gradientTransform="matrix(-1, 0, 0, 1, -4704.12, 0)" xlink:href="#k"/><linearGradient id="z" x1="-5731.79" y1="-1209.57" x2="-5797.26" y2="-1124.87" gradientTransform="matrix(-0.38, -0.92, 0.92, -0.38, -968.18, -5699.06)" xlink:href="#m"/><linearGradient id="aa" x1="299.51" y1="181.01" x2="100.49" y2="181.01" gradientUnits="userSpaceOnUse"><stop offset="0" stop-color="#fff"/><stop offset="0.22" stop-color="#fbfbfb"/><stop offset="0.43" stop-color="#f0f0f0"/><stop offset="0.64" stop-color="#dcdcdc"/><stop offset="0.85" stop-color="#c1c1c1"/><stop offset="1" stop-color="#a8a8a8"/></linearGradient><linearGradient id="ab" x1="153.41" y1="159.59" x2="250.43" y2="211.39" xlink:href="#aa"/><linearGradient id="ac" x1="18.66" y1="405.63" x2="47.42" y2="405.63" gradientTransform="translate(253.55 -209.2) rotate(-6.28)" gradientUnits="userSpaceOnUse"><stop offset="0" stop-color="#fff"/><stop offset="0.16" stop-color="#fbfbfb"/><stop offset="0.31" stop-color="#f0f0f1"/><stop offset="0.47" stop-color="#dcdddf"/><stop offset="0.62" stop-color="#c1c3c5"/><stop offset="0.77" stop-color="#9ea1a5"/><stop offset="0.91" stop-color="#73787d"/><stop offset="1" stop-color="#575d63"/></linearGradient><linearGradient id="ad" x1="-20.91" y1="384.64" x2="57.04" y2="384.64" xlink:href="#ac"/><linearGradient id="ae" x1="-46" y1="474.67" x2="-2.43" y2="474.67" xlink:href="#ac"/><linearGradient id="af" x1="-38.5" y1="446.77" x2="1.22" y2="446.77" xlink:href="#ac"/><linearGradient id="ag" x1="-293.9" y1="421.3" x2="-262.21" y2="421.3" gradientTransform="translate(513.96 -254.68) rotate(-9.71)" xlink:href="#ac"/><linearGradient id="ah" x1="-17.98" y1="456.62" x2="25.58" y2="456.62" xlink:href="#ac"/><linearGradient id="ai" x1="-212.53" y1="422.19" x2="-156.01" y2="422.19" gradientTransform="matrix(0.99, -0.14, 0.14, 0.99, 405.59, -234.57)" xlink:href="#ac"/><linearGradient id="aj" x1="-70.75" y1="452.7" x2="-17.23" y2="452.7" xlink:href="#ac"/><linearGradient id="ak" x1="-86.27" y1="484.39" x2="-41.35" y2="484.39" xlink:href="#ac"/><linearGradient id="al" x1="-92.9" y1="510.22" x2="-35.33" y2="510.22" xlink:href="#ac"/><linearGradient id="am" x1="-95.91" y1="537.77" x2="-42.1" y2="537.77" xlink:href="#ac"/><linearGradient id="an" x1="-70.93" y1="520.32" x2="-13.68" y2="520.32" xlink:href="#ac"/><linearGradient id="ao" x1="-47.54" y1="508.56" x2="11.02" y2="508.56" xlink:href="#ac"/><linearGradient id="ap" x1="13.78" y1="415.9" x2="63.65" y2="415.9" xlink:href="#ac"/><linearGradient id="aq" x1="-5054.85" y1="-152.5" x2="-5026.09" y2="-152.5" gradientTransform="matrix(-0.99, -0.11, -0.11, 0.99, -4957.66, -209.2)" xlink:href="#ac"/><linearGradient id="ar" x1="-5094.43" y1="-173.49" x2="-5016.47" y2="-173.49" gradientTransform="matrix(-0.99, -0.11, -0.11, 0.99, -4957.66, -209.2)" xlink:href="#ac"/><linearGradient id="as" x1="-5119.51" y1="-83.45" x2="-5075.94" y2="-83.45" gradientTransform="matrix(-0.99, -0.11, -0.11, 0.99, -4957.66, -209.2)" xlink:href="#ac"/><linearGradient id="at" x1="-5112.02" y1="-111.36" x2="-5072.29" y2="-111.36" gradientTransform="matrix(-0.99, -0.11, -0.11, 0.99, -4957.66, -209.2)" xlink:href="#ac"/><linearGradient id="au" x1="-5324.88" y1="-439.63" x2="-5293.2" y2="-439.63" gradientTransform="matrix(-0.99, -0.17, -0.17, 0.99, -5218.08, -254.68)" xlink:href="#ac"/><linearGradient id="av" x1="-5091.49" y1="-101.51" x2="-5047.93" y2="-101.51" gradientTransform="matrix(-0.99, -0.11, -0.11, 0.99, -4957.66, -209.2)" xlink:href="#ac"/><linearGradient id="aw" x1="-5263.48" y1="-312.63" x2="-5206.95" y2="-312.63" gradientTransform="matrix(-0.99, -0.14, -0.14, 0.99, -5109.71, -234.57)" xlink:href="#ac"/><linearGradient id="ax" x1="-5144.26" y1="-105.43" x2="-5090.74" y2="-105.43" gradientTransform="matrix(-0.99, -0.11, -0.11, 0.99, -4957.66, -209.2)" xlink:href="#ac"/><linearGradient id="ay" x1="-5159.78" y1="-73.74" x2="-5114.87" y2="-73.74" gradientTransform="matrix(-0.99, -0.11, -0.11, 0.99, -4957.66, -209.2)" xlink:href="#ac"/><linearGradient id="az" x1="-5166.41" y1="-47.9" x2="-5108.84" y2="-47.9" gradientTransform="matrix(-0.99, -0.11, -0.11, 0.99, -4957.66, -209.2)" xlink:href="#ac"/><linearGradient id="ba" x1="-5169.43" y1="-20.36" x2="-5115.61" y2="-20.36" gradientTransform="matrix(-0.99, -0.11, -0.11, 0.99, -4957.66, -209.2)" xlink:href="#ac"/><linearGradient id="bb" x1="-5144.44" y1="-37.81" x2="-5087.19" y2="-37.81" gradientTransform="matrix(-0.99, -0.11, -0.11, 0.99, -4957.66, -209.2)" xlink:href="#ac"/><linearGradient id="bc" x1="-5121.05" y1="-49.57" x2="-5062.49" y2="-49.57" gradientTransform="matrix(-0.99, -0.11, -0.11, 0.99, -4957.66, -209.2)" xlink:href="#ac"/><linearGradient id="bd" x1="-5059.73" y1="-142.23" x2="-5009.86" y2="-142.23" gradientTransform="matrix(-0.99, -0.11, -0.11, 0.99, -4957.66, -209.2)" xlink:href="#ac"/><linearGradient id="be" x1="338.41" y1="131.27" x2="338.41" y2="106.7" gradientTransform="matrix(1, 0, 0, 1, 0, 0)" xlink:href="#c"/><linearGradient id="bf" x1="-4765.71" y1="131.27" x2="-4765.71" y2="106.7" gradientTransform="matrix(-1, 0, 0, 1, -4704.12, 0)" xlink:href="#c"/></defs><path class="a" d="M228.27,179.65l8.23-7.87a104.44,104.44,0,0,1-11.34,29.13c-6.24,10.77-16.73,24.15-16.83,24.29h0l12.1-6.25.35-.18A61.23,61.23,0,0,0,235,208.91c-4.12,8.25-9,17.78-14,26.21l-5.44,9.14,9.41-4.95a92.3,92.3,0,0,0,28.13-22.73c2.67-5.38,10.25-14.74,10.25-14.74l25.06-20.55c.11-.17,29.82-20.8,29.82-20.8,23-14.45,31.8-28.33,33.31-45.63-14.09,11.38-35.09,14.18-59.8,17.26-25.91,3.22-36.19,1.17-53.37.14l-7.19,4.35a96.82,96.82,0,0,1-2.86,43Z"/><path d="M351.49,114.86A19.76,19.76,0,0,0,350.13,103c-1.16-2.42-8.67-11.84-18.71-18.48-4.74-3.14-16.44-10.65-33-10.61a57.18,57.18,0,0,0-31.8,10c-5.29,3.34-12,10.56-20.59,19.37-9.55,9.84-13.21,25-13.21,25l-1.66,8.34c13.75.58,25.35,1.65,42.48,0C303.58,133.84,335.3,128.75,351.49,114.86Z"/><path class="b" d="M319,120.93a4.23,4.23,0,0,0-4-1.44,8,8,0,0,0-4.92,3.43c.07-.51.52-6.69-4-7.65a4.72,4.72,0,0,0-3.05.53c-5.08,2.88-.73,17.31,1.84,24.68C309.75,136.11,321.84,124.88,319,120.93Z"/><path class="c" d="M271.25,121.24a4.19,4.19,0,0,0-3.17.75c-4.18,3.32,2.73,19.22,6.61,27.38,4.44-2.73,10.37-7.51,12.77-14.83.72-2.22,2.05-6.27,0-8.39-1.45-1.5-4-1.43-5.56-1-3.54,1.07-4.78,5-4.92,5.54C276.23,125.43,274.05,121.74,271.25,121.24Z"/><path class="d" d="M243.71,133.22a4.82,4.82,0,0,0-4.62.44c-5.56,4,.62,23.32,1.68,26.59,2.64-1.54,16.64-9.93,16.08-18.73l0-.32a3.38,3.38,0,0,0-1.48-2.12,5.07,5.07,0,0,0-2.72-1,5.71,5.71,0,0,0-3.95,1.45,7.56,7.56,0,0,0-2.11,3.94C247.37,138.49,246.18,134.43,243.71,133.22Z"/><path class="e" d="M270.11,90.39c1.8-.28,3.33,1.21,3.69,1.55a6,6,0,0,1,1.76,3.74,13.24,13.24,0,0,1,1.61-4.06c.89-1.48,2-3.38,3.86-3.65a4.4,4.4,0,0,1,3.52,1.35c3.13,3.51-5.67,16.44-9.05,21.19-.9-.88-11.34-11.27-8.72-17C267,93,268.1,90.7,270.11,90.39Z"/><path class="f" d="M317.64,142.9c1.38-.13,2.55,1.16,3.24,1.91a8.49,8.49,0,0,1,2,4,8.52,8.52,0,0,1,3.1-3.53c.47-.3,3.19-2,4.7-1s.94,4.2.76,5.2c-1.28,7.1-10.06,11.54-13.6,13.12-1.14-2.14-5.91-11.46-3.18-16.85C315.09,145,316.06,143.05,317.64,142.9Z"/><path class="g" d="M246.12,111.33a4.06,4.06,0,0,1,3.67-.61,4.24,4.24,0,0,1,2.33,3.18c2.5-5.35,5.7-8.68,8.18-8.19a2.7,2.7,0,0,1,1.27.66c2.35,2.25-.42,8.66-1.83,11.92a53.17,53.17,0,0,1-8.94,14,20.67,20.67,0,0,1-3.64-4.18A20.4,20.4,0,0,1,244,118.5C244,116.34,243.88,112.93,246.12,111.33Z"/><path class="h" d="M285.45,153.57a4.31,4.31,0,0,1,2.22,2.33,8.14,8.14,0,0,1,.18,6.17c1.66-3.31,4.3-5.3,6.81-5.09a4.78,4.78,0,0,1,3.56,2.08c2.7,4.7-9.56,16.45-12.57,19.27a44.45,44.45,0,0,1-4.36-11.4c-.92-4-2.44-10.62.45-12.77A4.13,4.13,0,0,1,285.45,153.57Z"/><path class="i" d="M256.31,157.09c1.57.52,2.24,2.12,2.61,3a9.78,9.78,0,0,1-.29,7.35c2-4.21,5.75-6.22,8.47-5.36a5,5,0,0,1,3.13,3.19c1.25,3.87-2.64,8.06-4.18,9.71a22.93,22.93,0,0,1-12.62,6.64,43.51,43.51,0,0,1-2.85-14.77c-.11-7.39,1.88-8.89,2.52-9.29A4.18,4.18,0,0,1,256.31,157.09Z"/><path class="j" d="M240.34,213.87a50,50,0,0,1-5.34-15.8c-1.09-7.06.2-9.4,1.27-10.6.14-.15,2.23-2.44,4.46-2,2.66.48,4.91,4.72,4.46,10.66,0,0,2.9-5.69,5.5-6.16a5.6,5.6,0,0,1,6.08,3.62c.5,1.62-.11,3.58-4.87,9.05A98.44,98.44,0,0,1,240.34,213.87Z"/><path class="k" d="M309.39,83.84c1.65.13,2.79,1.32,4,2.54a13.59,13.59,0,0,1,2.62,3.9,5.52,5.52,0,0,1,1.77-3.15A4.82,4.82,0,0,1,321,85.84a4.55,4.55,0,0,1,3.16,1.51c2.72,3.59-6.1,14.61-7.77,16.67-5.65-6.17-13.09-15.27-10.82-18.61A4.64,4.64,0,0,1,309.39,83.84Z"/><path class="l" d="M361.52,193.36c-6.86-11-5.37-25.16-3.93-38.84.87-8.28,1.69-16.09.73-23-.44-3.22-1.16-6.48-1.85-9.64-.41-1.82-.82-3.71-1.19-5.6l-1.06-5.49,4.8,2.87c3.31,2,10.53,2.89,13,3.08l2.21.16.11,2.21c0,.06.31,8.38.21,14.73,0,1.76-.18,8.06-1.06,15.29a110,110,0,0,1-2.67,14.23c-.5,2.1-1.07,4.48-1.69,7.46a126.43,126.43,0,0,0-3,21.32l-.32,8.14Z"/><path d="M357.74,115.8c4.55,2.73,14.13,3.43,14.13,3.43s.31,8.27.21,14.58c0,1.08-.13,7.51-1,15-1.11,9.11-2.41,12.38-4.33,21.48A129.67,129.67,0,0,0,363.64,192c-10.35-16.62-.23-42-2.84-60.86-.72-5.2-2.07-10.23-3.06-15.38m-7-10,2.13,11c.37,1.93.79,3.84,1.2,5.68.71,3.25,1.38,6.31,1.82,9.44.91,6.6.1,14.27-.75,22.38-1.48,14.11-3,28.7,4.3,40.44l8.6,13.82.64-16.27a124.94,124.94,0,0,1,3-20.91c.62-2.94,1.19-5.3,1.69-7.39A113.16,113.16,0,0,0,376,149.43c.89-7.35,1.05-13.76,1.08-15.55.09-5.8-.16-13.21-.21-14.74v-4.56l-4.63-.34c-3.5-.26-9.52-1.28-11.94-2.73l-9.6-5.74Z"/><path class="m" d="M374.15,121c-14.14-2.94-22.4-11.68-30.39-20.14a110.53,110.53,0,0,0-13-12.36,48.05,48.05,0,0,0-21.91-9.72,49.53,49.53,0,0,0-8.18-.67,59.44,59.44,0,0,0-9.53.81A60.12,60.12,0,0,0,275,83.82l-2.38-4.38a71.21,71.21,0,0,0,12-11.22l.84-1.12a27.7,27.7,0,0,0,3.35-5l.57-1.4,1.5-.15c1.31-.12,3.61-.19,6.5-.19a143.41,143.41,0,0,1,16.17.78A66,66,0,0,1,334.94,68c11.2,6,19.55,16.56,34,37.91,2.58,3.8,5.18,7.56,7.72,11.16l3.65,5.18Z"/><path d="M297.3,62.81a140,140,0,0,1,15.83.76,63.41,63.41,0,0,1,20.63,6.63c10.68,5.73,18.79,15.94,33.15,37.11q3.82,5.63,7.75,11.19c-20.16-4.18-27.35-20.51-42.41-32a50.92,50.92,0,0,0-23-10.21,51.59,51.59,0,0,0-8.6-.7,60.76,60.76,0,0,0-9.92.84,62.43,62.43,0,0,0-16.83,5.16,73.27,73.27,0,0,0,12.65-11.84c1.89-2.53,3.7-4.77,4.5-6.73,1.24-.12,3.54-.18,6.26-.18m0-5c-1.72,0-4.87,0-6.73.2l-3,.29-1.14,2.81a27.31,27.31,0,0,1-3,4.49l-.85,1.12c-2.54,3.4-9.57,9.52-11.29,10.6L276,86.08a58.25,58.25,0,0,1,15.49-4.75,57.53,57.53,0,0,1,9.14-.77,46.75,46.75,0,0,1,7.77.63,45.66,45.66,0,0,1,20.8,9.25,107.65,107.65,0,0,1,12.73,12.09c8.25,8.74,16.79,17.77,31.7,20.87L386,126l-7.3-10.35c-2.56-3.63-5.14-7.37-7.69-11.12-14.73-21.71-23.27-32.45-34.93-38.71a68.09,68.09,0,0,0-22.31-7.17,145.36,145.36,0,0,0-16.51-.81Z"/><path d="M323.47,60.62l-13.84-6.07c-9.91-4.34-19.47-4.61-29.23-.82-8.27,3.21-15.73,9-22.94,14.52l-.12.1C242.9,79.47,223.75,86.44,204.5,80.89l-2.31-.34-3,7.68,1,1.06c9.89,10.37,22.74,13.51,38.18,9.33,12.79-3.46,25.83-11.28,38.44-18.84,11.7-7,22.76-13.66,32-15.77Z"/><path class="n" d="M307.63,59.13c-19.28-8.44-32.93,2.15-47.24,13.18-16.33,12.58-36.34,16.47-56.61,13.53C232.55,116,277.2,66.14,307.63,59.13Z"/><path class="a" d="M171.73,179.65l-8.23-7.87a104.44,104.44,0,0,0,11.34,29.13c6.24,10.77,16.73,24.15,16.83,24.29h0L179.57,219l-.35-.18A61.23,61.23,0,0,1,165,208.91c4.12,8.25,9,17.78,14,26.21l5.44,9.14-9.41-4.95A92.3,92.3,0,0,1,147,216.58c-2.67-5.38-10.25-14.74-10.25-14.74l-25.06-20.55c-.11-.17-29.82-20.8-29.82-20.8C58.8,146,50,132.16,48.51,114.86,62.6,126.24,83.6,129,108.31,132.12c25.91,3.22,36.19,1.17,53.37.14l7.19,4.35a96.82,96.82,0,0,0,2.86,43Z"/><path d="M48.51,114.86A19.76,19.76,0,0,1,49.87,103c1.16-2.42,8.67-11.84,18.71-18.48,4.74-3.14,16.44-10.65,33-10.61a57.18,57.18,0,0,1,31.8,10c5.29,3.34,12.05,10.56,20.59,19.37,9.55,9.84,13.21,25,13.21,25l1.66,8.34c-13.75.58-25.35,1.65-42.48,0C96.42,133.84,64.7,128.75,48.51,114.86Z"/><path class="o" d="M81,120.93a4.23,4.23,0,0,1,4-1.44,8,8,0,0,1,4.92,3.43c-.07-.51-.52-6.69,4-7.65a4.72,4.72,0,0,1,3.05.53c5.08,2.88.73,17.31-1.84,24.68C90.25,136.11,78.16,124.88,81,120.93Z"/><path class="p" d="M128.75,121.24a4.19,4.19,0,0,1,3.17.75c4.18,3.32-2.73,19.22-6.61,27.38-4.44-2.73-10.37-7.51-12.77-14.83-.72-2.22-2.05-6.27,0-8.39,1.45-1.5,4-1.43,5.56-1,3.54,1.07,4.78,5,4.92,5.54C123.77,125.43,126,121.74,128.75,121.24Z"/><path class="q" d="M156.29,133.22a4.82,4.82,0,0,1,4.62.44c5.56,4-.62,23.32-1.68,26.59-2.64-1.54-16.64-9.93-16.08-18.73l0-.32a3.38,3.38,0,0,1,1.48-2.12,5.07,5.07,0,0,1,2.72-1,5.71,5.71,0,0,1,3.95,1.45,7.56,7.56,0,0,1,2.11,3.94C152.63,138.49,153.82,134.43,156.29,133.22Z"/><path class="r" d="M129.89,90.39c-1.8-.28-3.33,1.21-3.69,1.55a6,6,0,0,0-1.76,3.74,13.24,13.24,0,0,0-1.61-4.06c-.89-1.48-2-3.38-3.86-3.65a4.4,4.4,0,0,0-3.52,1.35c-3.13,3.51,5.67,16.44,9,21.19.9-.88,11.34-11.27,8.72-17C133,93,131.9,90.7,129.89,90.39Z"/><path class="s" d="M82.36,142.9c-1.38-.13-2.55,1.16-3.24,1.91a8.49,8.49,0,0,0-2,4,8.52,8.52,0,0,0-3.1-3.53c-.47-.3-3.19-2-4.7-1s-.94,4.2-.76,5.2c1.28,7.1,10.06,11.54,13.6,13.12,1.14-2.14,5.91-11.46,3.18-16.85C84.91,145,83.94,143.05,82.36,142.9Z"/><path class="t" d="M153.88,111.33a4.06,4.06,0,0,0-3.67-.61,4.24,4.24,0,0,0-2.33,3.18c-2.5-5.35-5.7-8.68-8.18-8.19a2.7,2.7,0,0,0-1.27.66c-2.35,2.25.42,8.66,1.83,11.92a53.17,53.17,0,0,0,8.94,14,20.67,20.67,0,0,0,3.64-4.18A20.4,20.4,0,0,0,156,118.5C156.05,116.34,156.12,112.93,153.88,111.33Z"/><path class="u" d="M114.55,153.57a4.31,4.31,0,0,0-2.22,2.33,8.14,8.14,0,0,0-.18,6.17c-1.66-3.31-4.3-5.3-6.81-5.09a4.78,4.78,0,0,0-3.56,2.08c-2.7,4.7,9.56,16.45,12.57,19.27a44.45,44.45,0,0,0,4.36-11.4c.92-4,2.44-10.62-.45-12.77A4.13,4.13,0,0,0,114.55,153.57Z"/><path class="v" d="M143.69,157.09c-1.57.52-2.24,2.12-2.61,3a9.78,9.78,0,0,0,.29,7.35c-2-4.21-5.75-6.22-8.47-5.36a5,5,0,0,0-3.13,3.19c-1.25,3.87,2.64,8.06,4.18,9.71a22.93,22.93,0,0,0,12.62,6.64,43.51,43.51,0,0,0,2.85-14.77c.11-7.39-1.88-8.89-2.52-9.29A4.18,4.18,0,0,0,143.69,157.09Z"/><path class="w" d="M159.66,213.87a50,50,0,0,0,5.34-15.8c1.09-7.06-.2-9.4-1.27-10.6-.14-.15-2.23-2.44-4.46-2-2.66.48-4.91,4.72-4.46,10.66,0,0-2.9-5.69-5.5-6.16a5.6,5.6,0,0,0-6.08,3.62c-.5,1.62.11,3.58,4.87,9.05A98.44,98.44,0,0,0,159.66,213.87Z"/><path class="x" d="M90.61,83.84c-1.65.13-2.79,1.32-4,2.54A13.59,13.59,0,0,0,84,90.28a5.52,5.52,0,0,0-1.77-3.15A4.82,4.82,0,0,0,79,85.84a4.55,4.55,0,0,0-3.16,1.51C73.08,90.94,81.9,102,83.57,104c5.65-6.17,13.09-15.27,10.82-18.61A4.64,4.64,0,0,0,90.61,83.84Z"/><path class="y" d="M34,192.15a127.43,127.43,0,0,0-3-21.32c-.63-3-1.2-5.36-1.71-7.46a110.88,110.88,0,0,1-2.68-14.23c-.89-7.24-1.05-13.52-1.08-15.28-.09-5.8.15-13.22.19-14.65l.08-2.24,2.24-.22c2.5-.19,9.72-1.11,13-3.09l4.79-2.88-1.05,5.5c-.37,1.89-.78,3.78-1.18,5.61-.69,3.15-1.4,6.41-1.84,9.63-1,6.91-.12,14.73.76,23,1.45,13.68,3,27.83-3.88,38.85l-4.3,6.92Z"/><path d="M42.26,115.8c-1,5.15-2.33,10.19-3,15.38-2.59,18.91,7.56,44.24-2.77,60.87a129.54,129.54,0,0,0-3.09-21.74c-1.93-9.1-3.24-12.36-4.36-21.47-.92-7.5-1-13.93-1.06-15-.1-6.3.19-14.55.19-14.57s9.59-.72,14.13-3.45m7-10-9.59,5.76c-2.42,1.45-8.43,2.47-11.93,2.74l-4.62.35v4.55c-.05,1.64-.28,9-.19,14.75,0,1.79.2,8.21,1.1,15.54A114.52,114.52,0,0,0,26.77,164c.5,2.08,1.07,4.45,1.69,7.39a125.65,125.65,0,0,1,3,20.9l.65,16.27,8.59-13.83c7.3-11.75,5.74-26.33,4.25-40.44-.87-8.11-1.68-15.78-.78-22.39.43-3.12,1.1-6.19,1.81-9.43.41-1.85.82-3.76,1.19-5.68l2.11-11Z"/><path class="z" d="M23.3,117.06c2.54-3.6,5.14-7.36,7.72-11.16C45.51,84.55,53.86,74,65.06,68a66,66,0,0,1,21.47-6.9,143.41,143.41,0,0,1,16.17-.78c2.89,0,5.19.07,6.5.19l1.5.15.57,1.4a27.7,27.7,0,0,0,3.35,5l.84,1.12a71.21,71.21,0,0,0,12,11.22l-2.38,4.38a60.12,60.12,0,0,0-16.16-4.95,59.44,59.44,0,0,0-9.53-.81,49.53,49.53,0,0,0-8.18.67,48.05,48.05,0,0,0-21.91,9.72,110.53,110.53,0,0,0-13,12.36C48.25,109.27,40,118,25.85,121l-6.2,1.29Z"/><path d="M102.7,62.81c2.72,0,5,.06,6.26.18.8,2,2.61,4.2,4.5,6.73a73.27,73.27,0,0,0,12.65,11.84,62.43,62.43,0,0,0-16.83-5.16,60.76,60.76,0,0,0-9.92-.84,51.59,51.59,0,0,0-8.6.7,50.92,50.92,0,0,0-23,10.21C52.69,98,45.5,114.32,25.34,118.5q3.93-5.56,7.75-11.19C47.45,86.14,55.56,75.93,66.24,70.2a63.41,63.41,0,0,1,20.63-6.63,140,140,0,0,1,15.83-.76m0-5h0a145.13,145.13,0,0,0-16.51.81,68.09,68.09,0,0,0-22.31,7.17c-11.66,6.26-20.2,17-34.93,38.71-2.55,3.75-5.13,7.49-7.69,11.12L14,126l12.4-2.57c14.91-3.1,23.45-12.13,31.7-20.87A107.65,107.65,0,0,1,70.79,90.44a45.66,45.66,0,0,1,20.8-9.25,46.75,46.75,0,0,1,7.77-.63,56,56,0,0,1,9.14.78A57.87,57.87,0,0,1,124,86.08l4.77-8.76c-1.72-1.08-8.75-7.2-11.29-10.6l-.85-1.12a27.31,27.31,0,0,1-3-4.49l-1.14-2.81-3-.29c-1.86-.17-5-.2-6.73-.2Z"/><path d="M91.25,64c9.2,2.11,20.26,8.75,32,15.77,12.61,7.56,25.65,15.38,38.44,18.84,15.44,4.18,28.29,1,38.18-9.33l1-1.06-3-7.68-2.31.34c-19.25,5.55-38.4-1.42-52.84-12.54l-.12-.1c-7.21-5.56-14.67-11.31-22.94-14.52-9.76-3.79-19.32-3.52-29.23.82L76.53,60.62Z"/><path class="aa" d="M92.37,59.13c19.28-8.44,32.93,2.15,47.24,13.18C155.94,84.89,176,88.78,196.22,85.84,167.45,116,122.8,66.14,92.37,59.13Z"/><path d="M200,49.36h0c-4.09,0-7.12,2.77-11.31,6.61-23,21.07-48.45,26.23-79.56,27.5-9.1.37-13.69,5.8-13.64,16.15.17,31.64.14,63.82.11,94.94l0,15.41c.12,26.76,10.56,49.68,31,68.13,16.6,15,39.7,26.61,66.8,33.66a27.08,27.08,0,0,0,13,.2c18.61-4.32,45.26-13.46,66.48-32.51,20.4-18.31,30.92-41.24,31.28-68.15.38-23.67.32-47.72.27-71,0-13.7-.07-27.86,0-41.79,0-5.39-1.67-14.51-13.19-15-31.38-1.28-57-6.49-80.21-27.76-3.9-3.59-7-6.42-11.06-6.42Z"/><path class="ab" d="M100.58,210c0-36.8.11-73.59-.09-110.38,0-7,2.05-10.86,8.84-11.14,32.21-1.31,58.73-6.84,82.74-28.8,7.66-7,8.15-7,15.61-.2,24.17,22.19,50.92,27.75,83.39,29.07,5.9.24,8.41,3.43,8.39,10-.16,37.58.34,75.16-.26,112.73-.73,55.06-46.95,85-93.89,95.86a22.43,22.43,0,0,1-10.65-.16C147.29,294.6,100.83,264.8,100.58,210Z"/><path d="M118,101.41c29.89-5,54-11.13,78.6-26.7a6.54,6.54,0,0,1,6.87-.06c25.5,15.47,49.89,20.58,78,26.37a6.54,6.54,0,0,1,5.23,6.31c.57,35.79.12,72.9.71,109.2-.08,18.54-8,33.34-20,45.62-15.24,15.54-44.51,33.54-67.29,33.78-42.2-5.15-88.95-37.53-87.67-85,.38-34.1.14-68.21.11-103A6.58,6.58,0,0,1,118,101.41Z"/><path class="ac" d="M253.55,194.64a19.22,19.22,0,0,0-4.24-6.73,32.25,32.25,0,0,0-7.3-5.5,100.63,100.63,0,0,0-10.62-5.12c-3.47-1.42-6.43-2.71-8.91-3.86a30.37,30.37,0,0,1-6-3.55,11.68,11.68,0,0,1-3.4-4,11.48,11.48,0,0,1-1.07-5.16,14.52,14.52,0,0,1,.84-5,10.23,10.23,0,0,1,2.63-4,12.13,12.13,0,0,1,4.63-2.6,22.21,22.21,0,0,1,6.8-.91q6.94,0,10.2,4.35t3.25,12.23q5.41,0,8.37-2.56a8.62,8.62,0,0,0,2.94-6.84,11.43,11.43,0,0,0-1.45-5.54,13.16,13.16,0,0,0-4.36-4.58,23.88,23.88,0,0,0-7.18-3.1,38.47,38.47,0,0,0-9.86-1.15,46.67,46.67,0,0,0-12.08,1.46,28.43,28.43,0,0,0-9.32,4.24,19.4,19.4,0,0,0-3.55,3.26,17.52,17.52,0,0,0-2.68-3.07,21.4,21.4,0,0,0-8.94-4.63,49.44,49.44,0,0,0-12.53-1.41,67.63,67.63,0,0,0-10.93.84,34.51,34.51,0,0,0-9,2.64,16.34,16.34,0,0,0-6.07,4.62,10.81,10.81,0,0,0-2.22,6.88c0,3.62,1.14,6.16,3.4,7.64s5.57,2.22,9.9,2.22a40.06,40.06,0,0,1,.54-6.8,13.36,13.36,0,0,1,2.1-5.43,10.17,10.17,0,0,1,4.35-3.55,17.89,17.89,0,0,1,7.3-1.26,17.55,17.55,0,0,1,7.68,1.41,10.28,10.28,0,0,1,4.39,4,15.83,15.83,0,0,1,2,6.12,60,60,0,0,1,.46,7.75v9.4l-13,.46q-18,.54-26.82,6.57t-8.87,18.49a30.37,30.37,0,0,0,1.84,11.12,21.17,21.17,0,0,0,5.08,7.8,20.24,20.24,0,0,0,7.72,4.58,30.14,30.14,0,0,0,9.66,1.49,27.73,27.73,0,0,0,8.37-1.11,21.61,21.61,0,0,0,6.23-3.09,27.41,27.41,0,0,0,5-4.74q2.29-2.75,4.74-6a26.94,26.94,0,0,0,1.84,5.59,15.27,15.27,0,0,0,5.2,5.19,25.15,25.15,0,0,0,8.14,3.13,68.45,68.45,0,0,0,15.27,1.07,56.84,56.84,0,0,0,12.65-1.53,27.59,27.59,0,0,0,9.74-4.62,21.07,21.07,0,0,0,6.27-7.68,24.4,24.4,0,0,0,2.21-10.7A24.85,24.85,0,0,0,253.55,194.64Zm-60,1.76a26.73,26.73,0,0,1-1.45,9,19.07,19.07,0,0,1-4.17,6.88,18.31,18.31,0,0,1-6.57,4.36,23.14,23.14,0,0,1-8.6,1.52c-4.33,0-7.52-1.2-9.59-3.63s-3.09-6.07-3.09-11a25.31,25.31,0,0,1,1.18-8.1,13.37,13.37,0,0,1,3.94-5.92,19,19,0,0,1,7.22-3.75,46.9,46.9,0,0,1,11.12-1.64l10-.46Zm47.49,15.47a12.34,12.34,0,0,1-3.32,4.51,15.35,15.35,0,0,1-5.39,2.9,24.17,24.17,0,0,1-7.41,1,18.39,18.39,0,0,1-8-1.56,13.8,13.8,0,0,1-5.23-4.28,17.05,17.05,0,0,1-2.83-6.31,34.13,34.13,0,0,1-.57-7.71V181.28a39,39,0,0,0,4.12,2.62q4.47,2.49,10.51,5.16,5.66,2.44,9.4,4.36a31.32,31.32,0,0,1,5.92,3.74,10.67,10.67,0,0,1,3.06,3.93,13.12,13.12,0,0,1,.88,5A14.22,14.22,0,0,1,241.09,211.87Z"/><path d="M356.36,130.21c-1.26-15.19-7.8-20.85-7.8-20.85L344.69,118a43,43,0,0,1-1,11.41c-5.07,22-25.65,28.82-48.85,48.95-17.7,15.37-27.72,30.5-39,47.55a279.33,279.33,0,0,0-26.5,50.64c1.47-1.16,3-2.33,4.71-3.48.6-.42,1.19-.82,1.78-1.2a107.66,107.66,0,0,0-19.37,48.82l8.65-12.26a161.51,161.51,0,0,0-5,82.22c3.07-7.66,6.66-15.77,10.86-24.21,3.56-7.17,7.21-13.83,10.82-20a57.39,57.39,0,0,0,1.68,23,137.21,137.21,0,0,1,19.71-41.43,96.26,96.26,0,0,0,.24,11.71,95.17,95.17,0,0,0,2.33,14.49c8-22.15,16.83-36.79,23.61-46.19a272.79,272.79,0,0,0,17-25.54c4.51-7.73,7.78-14.3,9.85-18.68q-.18,9.35-.34,18.69a423.37,423.37,0,0,1,22-50.25C347,214.56,350.49,211.05,354.1,199,360.58,177.43,357.62,145.4,356.36,130.21Z"/><path class="ad" d="M319.17,216.64a117.12,117.12,0,0,1,20.34-52.2c-.73,5.2-2.51,12.62-2.51,12.62s3-4.63,4-5.89,1.63-1.81,1.85-1.7c1,.5-3.77,13.12-8.9,23.42A151,151,0,0,1,319.17,216.64Z"/><path class="ae" d="M300.25,180.21c8.18-6.11,12.65-7.62,20.3-13.54a97.35,97.35,0,0,0,22.25-24.53l-4.75,13.32q5.63-8,11.24-16a55.83,55.83,0,0,1-8.5,20.54c-5.7,8.38-12.34,12.92-24.77,20.59-10.44,6.44-23.25,14-38.19,22.22A109.07,109.07,0,0,1,300.25,180.21Z"/><path class="af" d="M273,268.74a106.72,106.72,0,0,1,8.52-13.39,87.26,87.26,0,0,1,14.7-15l-3.82,10.18,8.23-9.81a148.89,148.89,0,0,1-38.32,50.06A196,196,0,0,1,273,268.74Z"/><path class="ag" d="M301.41,214.7a86.12,86.12,0,0,1-34.94,45.75,114.84,114.84,0,0,1,31.4-46.67l-5.76,12.1Z"/><path class="ah" d="M323.08,184.4a95.14,95.14,0,0,1-23.57,50.13,100.35,100.35,0,0,1,21.66-53.87q-2.61,7.77-5.21,15.53Z"/><path class="ai" d="M299,251.45c6.09-11.91,11.14-22.49,20.61-32.06L315,234.05l11.07-17.64c-4.71,22.66-21.58,40.11-37.7,55.71Q293.71,261.79,299,251.45Z"/><path class="aj" d="M270.9,213.69a72.26,72.26,0,0,1,6.7-5.3,88.79,88.79,0,0,1,11.76-6.79A95.72,95.72,0,0,0,305.29,191c-1,2.25-2.07,4.49-3.11,6.74l7.75-6.26a34.14,34.14,0,0,1-4.72,8.46c-1.15,1.51-4.09,5.09-11.22,9.68A79.24,79.24,0,0,1,281.9,216a149.61,149.61,0,0,0-23.62,13.13A66.5,66.5,0,0,1,270.9,213.69Z"/><path class="ak" d="M245.89,250.58c3.84-5.55,8.62-12.36,16.91-19a74.92,74.92,0,0,1,16.27-10l-8.95,11.89,13.77-9.29a89.13,89.13,0,0,1-17.36,18.92c-5.09,4.12-8,5.47-13.66,9.86a111,111,0,0,0-17.77,17.19A112,112,0,0,1,245.89,250.58Z"/><path class="al" d="M223.48,306.42a96.33,96.33,0,0,1,38.4-54.24l-6.81,10.34,8.45-2.9q-6.39,6-12.92,12.89A277.77,277.77,0,0,0,223.48,306.42Z"/><path class="am" d="M231.46,304.11A99.51,99.51,0,0,1,256,272.33a95,95,0,0,1,12.37-8.9l-3.83,6.9,6.14-.76a149.69,149.69,0,0,0-49.43,77.12A101,101,0,0,1,231.46,304.11Z"/><path class="an" d="M248,320.56c-3.65,6.63-9.39,17.11-15.74,31.53-4.6,10.46-8,19.63-10.53,26.78a127.61,127.61,0,0,1,5.39-39.55c2.25-7.4,5.64-18.29,14-30.38a95.73,95.73,0,0,1,20.73-21.61l-5.47,9.94,9.73-6.77C258.73,301.78,252.73,312,248,320.56Z"/><path class="ao" d="M244.13,353.88a142.36,142.36,0,0,1,36.28-76.94L278,286.25l14.67-14.88c-8.39,12.21-16.95,25.5-25.43,39.9C258.52,326,250.87,340.31,244.13,353.88Z"/><path class="ap" d="M305.82,273.05A214.22,214.22,0,0,1,289,298.44c-6.79,9.36-15.42,23.78-22.46,45.32A65,65,0,0,1,267.89,321c2.41-9.9,6.62-16.69,10.88-23.24,6.87-10.53,16.66-24.68,29.79-41.25l-4.46,11.92,11.36-15.57A185.51,185.51,0,0,1,305.82,273.05Z"/><path class="aq" d="M354.13,162.78c-1.45,13.74-2.58,24.36-6.52,36.78-3.17,10-5.42,12.5-14,30.56-6.46,13.59-11.24,24.89-14.29,32.38a227.5,227.5,0,0,1,12.16-51.8c2.88-7.95,4.61-11.37,7.54-19.35a249.14,249.14,0,0,0,13-53.5l1,14q1.37-7,2.72-14C355.6,144.06,355.21,152.63,354.13,162.78Z"/><path d="M43.64,130.21c1.26-15.19,7.8-20.85,7.8-20.85L55.31,118a43,43,0,0,0,1,11.41c5.07,22,25.65,28.82,48.85,48.95,17.7,15.37,27.72,30.5,39,47.55a279.33,279.33,0,0,1,26.5,50.64c-1.47-1.16-3-2.33-4.71-3.48-.6-.42-1.19-.82-1.78-1.2a107.66,107.66,0,0,1,19.37,48.82l-8.65-12.26a161.07,161.07,0,0,1,7.25,33.9,162.42,162.42,0,0,1-2.28,48.32c-3.07-7.66-6.66-15.77-10.86-24.21-3.56-7.17-7.21-13.83-10.82-20a57.39,57.39,0,0,1-1.68,23,137.45,137.45,0,0,0-7.68-20.63,138.56,138.56,0,0,0-12-20.8,96.26,96.26,0,0,1-.24,11.71,95.17,95.17,0,0,1-2.33,14.49c-8-22.15-16.83-36.79-23.61-46.19a272.79,272.79,0,0,1-17-25.54c-4.51-7.73-7.78-14.3-9.85-18.68q.18,9.35.34,18.69a423.37,423.37,0,0,0-22-50.25C53,214.56,49.51,211.05,45.9,199,39.42,177.43,42.38,145.4,43.64,130.21Z"/><path class="ar" d="M80.83,216.64a118.15,118.15,0,0,0-9.85-34,118,118,0,0,0-10.49-18.18c.73,5.2,2.51,12.62,2.51,12.62s-3-4.63-4-5.89-1.63-1.81-1.85-1.7c-1,.5,3.77,13.12,8.9,23.42A151,151,0,0,0,80.83,216.64Z"/><path class="as" d="M99.75,180.21c-8.18-6.11-12.65-7.62-20.3-13.54A97.35,97.35,0,0,1,57.2,142.14L62,155.46q-5.62-8-11.24-16A55.83,55.83,0,0,0,59.21,160c5.7,8.38,12.34,12.92,24.77,20.59,10.44,6.44,23.25,14,38.19,22.22A109.07,109.07,0,0,0,99.75,180.21Z"/><path class="at" d="M127,268.74a106.72,106.72,0,0,0-8.52-13.39,87.26,87.26,0,0,0-14.7-15l3.82,10.18-8.23-9.81a148.89,148.89,0,0,0,38.32,50.06A196,196,0,0,0,127,268.74Z"/><path class="au" d="M98.59,214.7a86.12,86.12,0,0,0,34.94,45.75,115.21,115.21,0,0,0-11.86-23.87,114.62,114.62,0,0,0-19.54-22.8l5.76,12.1Z"/><path class="av" d="M76.92,184.4a95.14,95.14,0,0,0,23.57,50.13A100.18,100.18,0,0,0,94,207a100.09,100.09,0,0,0-15.19-26.29q2.61,7.77,5.21,15.53Z"/><path class="aw" d="M101,251.45C94.9,239.54,89.85,229,80.38,219.39L85,234.05,73.9,216.41c4.71,22.66,21.58,40.11,37.7,55.71Q106.29,261.79,101,251.45Z"/><path class="ax" d="M129.1,213.69a72.26,72.26,0,0,0-6.7-5.3,88.79,88.79,0,0,0-11.76-6.79A95.72,95.72,0,0,1,94.71,191c1,2.25,2.07,4.49,3.11,6.74l-7.75-6.26A34.14,34.14,0,0,0,94.79,200c1.15,1.51,4.09,5.09,11.22,9.68A79.24,79.24,0,0,0,118.1,216a149.61,149.61,0,0,1,23.62,13.13A66.5,66.5,0,0,0,129.1,213.69Z"/><path class="ay" d="M154.11,250.58c-3.84-5.55-8.62-12.36-16.91-19a74.92,74.92,0,0,0-16.27-10l8.95,11.89-13.77-9.29a89.13,89.13,0,0,0,17.36,18.92c5.09,4.12,8,5.47,13.66,9.86a111,111,0,0,1,17.77,17.19A112,112,0,0,0,154.11,250.58Z"/><path class="az" d="M176.52,306.42a96.33,96.33,0,0,0-38.4-54.24l6.81,10.34-8.45-2.9q6.39,6,12.92,12.89A277.77,277.77,0,0,1,176.52,306.42Z"/><path class="ba" d="M168.54,304.11A99.51,99.51,0,0,0,144,272.33a95,95,0,0,0-12.37-8.9l3.83,6.9-6.14-.76a149.69,149.69,0,0,1,49.43,77.12A101,101,0,0,0,168.54,304.11Z"/><path class="bb" d="M152,320.56c3.65,6.63,9.39,17.11,15.74,31.53,4.6,10.46,8,19.63,10.53,26.78a127.61,127.61,0,0,0-5.39-39.55c-2.25-7.4-5.64-18.29-14-30.38a95.73,95.73,0,0,0-20.73-21.61l5.47,9.94-9.73-6.77C141.27,301.78,147.27,312,152,320.56Z"/><path class="bc" d="M155.87,353.88a142.59,142.59,0,0,0-12.59-41.94,142.31,142.31,0,0,0-23.69-35l2.43,9.31-14.67-14.88c8.39,12.21,17,25.5,25.43,39.9C141.48,326,149.13,340.31,155.87,353.88Z"/><path class="bd" d="M94.18,273.05A214.22,214.22,0,0,0,111,298.44c6.79,9.36,15.42,23.78,22.46,45.32A65,65,0,0,0,132.11,321c-2.41-9.9-6.62-16.69-10.88-23.24-6.87-10.53-16.66-24.68-29.79-41.25l4.46,11.92L84.54,252.86A185.51,185.51,0,0,0,94.18,273.05Z"/><path class="be" d="M45.87,162.78c1.45,13.74,2.58,24.36,6.52,36.78,3.17,10,5.42,12.5,14,30.56C72.87,243.71,77.65,255,80.7,262.5a227.5,227.5,0,0,0-12.16-51.8c-2.88-7.95-4.61-11.37-7.54-19.35a249.14,249.14,0,0,1-13-53.5l-1.05,14q-1.36-7-2.72-14C44.4,144.06,44.79,152.63,45.87,162.78Z"/><path class="bf" d="M335.21,107a4.75,4.75,0,0,0-4.37.45c-5.16,3.61,1.28,20.87,2.39,23.78,2.46-1.41,15.49-9.1,14.69-17,0-.15,0-.29,0-.29a3.17,3.17,0,0,0-1.47-1.89,5.14,5.14,0,0,0-2.61-.83,5.5,5.5,0,0,0-3.7,1.35,6.5,6.5,0,0,0-1.89,3.55C338.84,111.71,337.59,108.09,335.21,107Z"/><path class="bg" d="M64.79,107a4.75,4.75,0,0,1,4.37.45c5.16,3.61-1.28,20.87-2.39,23.78-2.46-1.41-15.49-9.1-14.69-17,0-.15,0-.29,0-.29a3.17,3.17,0,0,1,1.47-1.89,5.14,5.14,0,0,1,2.61-.83,5.5,5.5,0,0,1,3.7,1.35,6.5,6.5,0,0,1,1.89,3.55C61.16,111.71,62.41,108.09,64.79,107Z"/></svg>