<?xml version="1.0" encoding="utf-8"?>
<svg version="1.1" id="Layer_1" xmlns="http://www.w3.org/2000/svg" xmlns:xlink="http://www.w3.org/1999/xlink" x="0px" y="0px"
	 viewBox="0 0 97.1 100" style="enable-background:new 0 0 97.1 100;" xml:space="preserve">
<defs>
    <linearGradient id="sunburstGradient" x1="0%" y1="0%" x2="0%" y2="100%" gradientUnits="userSpaceOnUse">
        <stop offset="0%" style="stop-color:#2F4961;stop-opacity:1"/>
        <stop offset="100%" style="stop-color:#64E281;stop-opacity:1"/>
    </linearGradient>
</defs>
<g fill="url('#sunburstGradient')">
  <path d="M93.2,61.7c-5.2-3-9.5,1.4-11.1,3.2c-3.4,3.5-7.6,7.1-9.7,8.8c-0.9-0.4-1.9-0.7-2.9-0.7c-6.4-0.3-16.4-1.5-19-3
  	c-2.8-1.7-4.9-3.2-6.7-4.5c-5.5-4-9.8-7.2-20.6-7.2c-3.1,0-5.8,0.9-8.5,1.7c-2.8,0.9-5.3,1.7-8.4,1.7c-3.4,0-6.2,2.8-6.2,6.2v15.8
  	c0,3.4,2.8,6.2,6.2,6.2c5.8,0,15.1,0.3,17.2,1c5.7,1.5,13.4,8.5,18.9,9.2H71c3.1,0,6.4-2.8,7.6-4.7C82.3,89,95.8,72.1,96,71.9
  	c0.1-0.1,0.2-0.3,0.3-0.4C98.1,68,96.7,63.8,93.2,61.7z M71.1,94.5H42.4c-0.2,0-0.6-0.1-0.8-0.2c-1.1-0.7-11.5-7.1-16.4-8.7
  	c-3.6-1.2-16.4-1.3-19-1.3c-0.3,0-0.6-0.2-0.6-0.6V68c0-0.3,0.2-0.6,0.6-0.6c4,0,7.3-1,10.2-2c2.4-0.8,4.5-1.4,6.8-1.4
  	c8.9,0,12.1,2.3,17.3,6.1c2,1.4,4.3,3.1,7.2,4.9c1.4,0.9,3.9,1.5,6.6,2.1c5.8,1.1,13,1.5,15,1.7h0.1c0.9,0,1.7,0.8,1.7,1.7
  	c0,0.9-0.8,1.7-1.7,1.7h-0.1L48,83.1c-1.7-0.1-5.7-2.9-8.4-4.7c-0.7-0.4-1.3-1-2-1.4c-1.4-1-2.9-1.9-4.1-2.5
  	c-1.4-0.7-3.1-0.1-3.8,1.2s-0.3,3.2,1.1,3.9c1.4,0.8,3.3,2.1,5.4,3.5c4.2,3,8.3,5.8,11.7,5.8h0.1l21.4-1.1c4,0,7.3-3.3,7.3-7.3
  	c0-0.9-0.1-1.8-0.4-2.5c2.3-1.9,6.3-5.4,9.8-9.1c2.4-2.5,3.3-2.6,4.2-2.2c0.8,0.4,1.3,1.3,1,2.2c-1.9,2.3-13.9,17.5-17.5,23.7
  	C73.3,93.3,71.6,94.4,71.1,94.5z"/>
  <g>
  	<g>
  		<g>
  			<g>
  				<g>
  					<path d="M80.6,34.9c0.3,0.1,0.6,0.3,0.9,0.3c0.8,0,1.3-0.8,1.3-1.5c0-0.3-0.1-0.7-0.3-1c-0.7-0.9-2.2-1.1-3.2-1.1v-0.9
  						c0-0.3-0.1-0.6-0.6-0.6c-0.4,0-0.6,0.2-0.6,0.6v0.9c-2.4,0.2-4.4,1.9-4.4,4.5c0,1.4,0.7,2.4,2.4,3.3c0.6,0.2,1.2,0.6,2,0.7v3.1
  						c-1.3,0-2.3-0.9-3.1-0.9s-1.4,0.8-1.4,1.7c0,1.4,1.9,2,3.3,2.2c0.4,0.1,0.8,0.1,1.1,0.1v0.9c0,0.3,0.1,0.6,0.6,0.6
  						c0.4,0,0.6-0.2,0.6-0.6v-0.9c1.9-0.1,4.5-1.5,4.5-4.6c0-0.7-0.1-1.2-0.3-1.7c-0.7-1.5-2.4-2.2-4.1-2.8v-1v-1.9
  						C79.7,34.4,80.1,34.7,80.6,34.9z M92.2,27.9c2.4,3,3.8,6.7,3.8,10.8c0,9.6-7.7,17.3-17.3,17.3c-3.5,0-6.8-1.1-9.6-2.9
  						c-3.6,3.1-9.2,7.8-9.2,7.8S43.6,47.1,39.3,42.9c-5.8-5.7-19.6-19.3-11.1-33.4c3.5-6,10-9.5,17.4-9.5c5.5,0,10.7,2.1,14.3,5.6
  						C63.6,2,68.8,0,74.3,0c7.4,0,13.8,3.5,17.4,9.5C95.6,16,94.8,22.4,92.2,27.9z M87.7,24.1c1.4-3.9,1.4-7.8-0.9-11.8
  						c-2.5-4.2-7.3-6.7-12.7-6.7c-5,0-9.5,2.2-12,6l-2.3,3.3l-2.2-3.3c-2.5-3.8-7.1-6-12-6c-5.4,0-10.2,2.5-12.7,6.7
  						c-5.5,9.2,1.7,18.2,10.3,26.6c3.5,3.5,12.5,11.3,16.7,14.8c1.3-1.1,3.1-2.6,5.1-4.4c-2.3-2.9-3.6-6.6-3.6-10.6
  						c0-9.6,7.7-17.3,17.3-17.3C82,21.4,85.1,22.4,87.7,24.1z"/>
  					<path d="M79.2,43.2v-2.8c0.7,0.2,1.1,0.6,1.1,1.4C80.4,42.5,79.9,43.2,79.2,43.2z"/>
  					<path d="M76.9,35.7c0-0.7,0.4-1.2,1.1-1.3v2.4C77.5,36.8,76.9,36.3,76.9,35.7z"/>
  				</g>
  			</g>
  		</g>
  	</g>
  </g>
</g>
</svg>
