<?xml version="1.0" encoding="utf-8"?>
<svg version="1.1" id="Layer_1" xmlns="http://www.w3.org/2000/svg" xmlns:xlink="http://www.w3.org/1999/xlink" x="0px" y="0px"
	 viewBox="0 0 100 94.5" style="enable-background:new 0 0 100 94.5;" xml:space="preserve">
<defs>
    <linearGradient id="sunburstGradient" x1="0%" y1="0%" x2="0%" y2="100%" gradientUnits="userSpaceOnUse">
        <stop offset="0%" style="stop-color:#E31C60;stop-opacity:1"/>
        <stop offset="100%" style="stop-color:#E7EA9F;stop-opacity:1"/>
    </linearGradient>
</defs>
<g fill="url('#sunburstGradient')">
	<path d="M91.9,16.8H80.8c0.9-2.4,1.2-5,0.5-7.6c-1.1-4.1-4.1-7.4-8.2-8.7C69-0.7,64.6,0.2,61.3,3l-11.4,9.8L38.4,3
		c-3.3-2.7-7.7-3.7-11.8-2.4s-7.1,4.5-8.2,8.7c-0.6,2.5-0.4,5.1,0.5,7.6H7.9c-4.3,0-7.9,3.5-7.9,7.9v11c0,4.1,3.2,7.4,7.1,7.8v43.1
		c0,4.3,3.5,7.9,7.9,7.9h70c4.3,0,7.9-3.5,7.9-7.9V43.5c4-0.4,7.1-3.7,7.1-7.8V24.6C99.8,20.3,96.3,16.8,91.9,16.8z M92,35.7H61.7
		V24.6h30.3L92,35.7z M45.9,35.7V24.6h7.9v11L45.9,35.7L45.9,35.7z M53.9,43.5v43.1H46V43.5H53.9z M66.5,9c1.2-1.1,2.7-1.4,4.3-0.8
		c1.5,0.5,2.6,1.7,3,3.2c0.3,1.4,0.1,2.7-0.8,3.9c-0.8,1.1-2.1,1.8-3.6,1.8l0,0H57.2L66.5,9z M26.9,15c-3.3-4.2,2.4-9.6,6.4-6.2
		c0,0,9.2,7.9,9.2,7.9H30.4C29,16.8,27.7,16.2,26.9,15z M7.9,24.6h30.3v11H7.9V24.6z M14.9,43.5h23.2v43.1H14.9V43.5z M61.7,86.6
		V43.5h23.2v43.1H61.7z"/>
</g>
</svg>
