<?xml version="1.0" encoding="utf-8"?>
<svg version="1.1" id="Layer_1" xmlns="http://www.w3.org/2000/svg" xmlns:xlink="http://www.w3.org/1999/xlink" x="0px" y="0px"
	 viewBox="0 0 90 88.2" style="enable-background:new 0 0 90 88.2;" xml:space="preserve">
<defs>
    <linearGradient id="sunburstGradient" x1="0%" y1="0%" x2="0%" y2="100%" gradientUnits="userSpaceOnUse">
        <stop offset="0%" style="stop-color:#F45322;stop-opacity:1"/>
        <stop offset="100%" style="stop-color:#FFB000;stop-opacity:1"/>
    </linearGradient>
</defs>
<g fill="url('#sunburstGradient')">
	<path d="M45,36.4c-6.4,0-11.6,5.2-11.6,11.6S38.6,59.6,45,59.6S56.6,54.4,56.6,48S51.4,36.4,45,36.4z M45,55.6
		c-4.2,0-7.6-3.4-7.6-7.6s3.4-7.6,7.6-7.6s7.6,3.4,7.6,7.6S49.2,55.6,45,55.6z"/>
	<path d="M78.4,59.6C84.8,59.6,90,54.4,90,48s-5.2-11.6-11.6-11.6S66.8,41.6,66.8,48S72,59.6,78.4,59.6z M78.4,40.4
		c4.2,0,7.6,3.4,7.6,7.6s-3.4,7.6-7.6,7.6s-7.6-3.4-7.6-7.6S74.2,40.4,78.4,40.4z"/>
	<path d="M83.2,61.2h-6.3l0,0c-2.8,0-5.5,1.2-7.4,3.4l-5.2,6c-0.7,0.8-1.7,1.3-2.7,1.4v-3c0-4.2-3.5-7.7-7.7-7.7h-1.2
		c-0.8,0-0.8,0-5.1,4.3L45,67.7l-6-6c-0.4-0.4-1-0.6-1.6-0.6c-0.3,0-1.1,0-1.1,0c-4.2,0-7.7,3.5-7.7,7.7v3c-1.1-0.1-2.1-0.6-2.8-1.4
		l-5.2-6C18.7,62.3,16,61,13.2,61l0,0H6.9C3.1,61.2,0,64.2,0,68v18.2c0,1.1,0.9,2,2,2s2-0.9,2-2V68c0-1.6,1.3-2.8,2.8-2.8h6.3l0,0
		c1.7,0,3.3,0.7,4.4,2l5.2,6c1.6,1.8,3.8,2.8,6.2,2.8h4.9c0.8,0,1.5,0.7,1.5,1.5S34.8,79,33.9,79h-8.4c-0.6,0-1.1-0.2-1.5-0.6
		l-5.9-5.3c-0.8-0.7-2.1-0.7-2.8,0.1c-0.7,0.8-0.7,2.1,0.1,2.8l1.7,1.6v8.6c0,1.1,0.9,2,2,2s2-0.9,2-2v-4.9c0.6,0.7,1.5,1.1,2.3,1.4
		v3.6c0,1.1,0.9,2,2,2s2-0.9,2-2V83h34.9v3.2c0,1.1,0.9,2,2,2s2-0.9,2-2v-3.6c0.8-0.3,1.7-0.7,2.3-1.4v4.9c0,1.1,0.9,2,2,2
		s2-0.9,2-2v-8.6l1.7-1.6c0.8-0.7,0.9-2,0.1-2.8c-0.7-0.8-2-0.9-2.8-0.1L66,78.4c-0.4,0.4-1,0.6-1.5,0.6h-8.4
		c-0.8,0-1.5-0.7-1.5-1.5s0.7-1.5,1.5-1.5H61c2.4,0,4.6-1,6.2-2.8l5.2-6c1.1-1.3,2.7-2,4.4-2l0,0h6.3c1.6,0,2.8,1.3,2.8,2.8v18.2
		c0,1.1,0.9,2,2,2s2-0.9,2-2V68C90,64.2,86.9,61.2,83.2,61.2z M50.5,77.5c0,0.5,0.1,1,0.2,1.5H39.2c0.1-0.5,0.2-1,0.2-1.5
		c0-3-2.5-5.5-5.5-5.5h-1.3v-3.1c0-2,1.7-3.7,3.7-3.7c0.1,0,0.3,0,0.4,0l6.8,6.8c0.8,0.8,2,0.8,2.8,0c2.3-2.3,5.5-5.5,6.8-6.8h0.4
		c2.1,0,3.7,1.7,3.7,3.7V72h-1.4C53,72,50.5,74.4,50.5,77.5z"/>
	<path d="M0,48c0,6.4,5.2,11.6,11.6,11.6S23.2,54.4,23.2,48S18,36.4,11.6,36.4S0,41.6,0,48z M19.2,48c0,4.2-3.4,7.6-7.6,7.6
		S4,52.2,4,48s3.4-7.6,7.6-7.6S19.2,43.8,19.2,48z"/>
	<path d="M43.7,0H22.1c-5.3,0-9.5,4.3-9.5,9.5v12.3c0,5,3.9,9.2,8.9,9.5l-0.8,3.1c-0.5,1.6,1.2,3.2,2.7,2.4L35,31.4h8.7
		c5.2,0,9.5-4.3,9.5-9.5V9.5C53.2,4.3,49,0,43.7,0z M49.2,21.9c0,3-2.5,5.5-5.5,5.5h-9.2c-0.1,0-0.3,0-0.4,0c-0.3,0-8,3.8-8.4,3.9
		c0.7-1.5,0.6-3.9-1.6-3.9c-0.1,0-2,0-2.1,0c-3,0-5.5-2.5-5.5-5.5V9.5C16.5,6.5,19,4,22,4h21.6c3,0,5.5,2.5,5.5,5.5L49.2,21.9
		L49.2,21.9z"/>
	<path d="M23.4,13.3h9.7c1.1,0,2-0.9,2-2s-0.9-2-2-2h-9.7c-1.1,0-2,0.9-2,2S22.3,13.3,23.4,13.3z"/>
	<path d="M42.4,9.3h-3c-1.1,0-2,0.9-2,2s0.9,2,2,2h3c1.1,0,2-0.9,2-2S43.5,9.3,42.4,9.3z"/>
	<path d="M27.1,18.1h-3.7c-1.1,0-2,0.9-2,2s0.9,2,2,2h3.7c1.1,0,2-0.9,2-2S28.2,18.1,27.1,18.1z"/>
	<path d="M42.4,18.1h-8.8c-1.1,0-2,0.9-2,2s0.9,2,2,2h8.8c1.1,0,2-0.9,2-2S43.5,18.1,42.4,18.1z"/>
</g>
</svg>
