<?xml version="1.0" encoding="utf-8"?>
<!-- Generator: Adobe Illustrator 24.2.1, SVG Export Plug-In . SVG Version: 6.00 Build 0)  -->
<svg version="1.1" id="Layer_1" xmlns="http://www.w3.org/2000/svg" xmlns:xlink="http://www.w3.org/1999/xlink" x="0px" y="0px"
	 viewBox="0 0 65.2 100" style="enable-background:new 0 0 65.2 100;" xml:space="preserve">
<defs>
    <linearGradient id="sunburstGradient" x1="0%" y1="0%" x2="0%" y2="100%" gradientUnits="userSpaceOnUse">
        <stop offset="0%" style="stop-color:#8321B7;stop-opacity:1"/>
        <stop offset="100%" style="stop-color:#2CB2D1;stop-opacity:1"/>
    </linearGradient>
</defs>
<g fill="url('#sunburstGradient')">
	<path d="M34,70.9c0.6,0.4,0.8,1.3,0.8,2.1c0.6,5.7,1.8,8.5,5.9,12.5c1.8,1.7-1,4.4-2.7,2.7c-4.3-4.2-6.1-7.7-6.9-13.5l-11.7,0.1
		c-1.9-0.1-2.1,2-1.4,3.3c2.1,3,9.9-2.4,12.7,1.6c1,2.3,2.7,4.5,4.5,6.4c1.9,2,4,3.9,6.2,5.7c1,0.8,1.4,2.9,1.9,4
		c1,1,5.2,0.7,9.3-0.2c10.3-2.2,8.9-4,7.2-12.5c-1.3-7.1-2-11.1-1.7-20.1c0-1.4-0.4-2.5-1.1-3.5c-0.8-1.1-2-2-3.5-2.9
		c-2.7-1.6-4-4.1-5.5-6.6c-1.1-1.9-2.2-3.9-3.9-5.1v16l3.7,3.7c0.8,0.8,0.8,2.1,0,2.9c-0.8,0.8-2.1,0.8-2.9,0l-4.3-4.3
		c-2.2-1.9-4.5-3.7-7-5.6c-2.6-1.9-5.4-3.9-8.3-5.9c-1.4-1-2.6-1.1-3.5-0.7c-0.8,0.4-1.4,1.2-1.6,2c-0.2,1,0.1,2.1,1.1,3.1
		c2.6,2.6,4.9,4.9,7.1,7.4C30.4,65.8,32.2,68.3,34,70.9z M44.2,40.6c3.8,1.5,5.5,4.6,7.2,7.6c1.1,2,2.3,4.1,4.1,5.2
		c1.8,1.1,3.4,2.4,4.6,3.9c1.3,1.6,2,3.6,1.9,5.9c-0.3,8.5,0.4,12.4,1.6,19.2c0.4,2.2,0.8,4.7,1.3,7.6c0.7,1.8,0.1,3.4-1.4,4.9
		c-1,1-2.6,1.9-4.4,2.7c-1.7,0.7-3.7,1.3-5.6,1.7c-5.7,1.2-11.8,1-13.5-1.6c-0.4-0.9-0.8-2.3-1.2-3.2c-4.1-3.4-8.6-7.5-11-12.3
		c-2.7-0.5-4.7,0.3-7.3,0.6c-5.1,0.8-7.9-5-5.9-9H7.5c-2,0-3.9-0.9-5.3-2.2C0.9,70.2,0,68.3,0,66.3V7.5c0-2,0.9-3.9,2.2-5.3
		C3.6,0.9,5.4,0,7.5,0h29.2c2.1,0,3.9,0.9,5.3,2.2c1.4,1.4,2.2,3.3,2.2,5.3L44.2,40.6L44.2,40.6z M28.7,70c-1-1.4-2-2.7-3.1-3.9
		L25.5,66c-0.9,0.8-2.1,1.3-3.4,1.3c-1.4,0-2.8-0.6-3.7-1.5c-1-0.9-1.6-2.3-1.6-3.7c0-1.4,0.5-2.7,1.4-3.6c-1.6-1.9-2.1-4.1-1.6-6.1
		c0.5-2.1,1.8-3.8,3.8-4.6c2-0.8,4.5-0.7,7.1,1.1c4.5,3.1,8.7,6.2,12.9,9.5V42V7.5c0-1-0.4-1.9-1.1-2.6c-0.6-0.6-1.6-1.1-2.6-1.1
		H7.5c-1,0-1.9,0.4-2.6,1.1C4.2,5.5,3.8,6.5,3.8,7.5v58.8c0,1,0.4,1.9,1.1,2.6C5.6,69.5,6.5,70,7.5,70H28.7z M23.8,64.1
		c-1.2-1.3-2.5-2.6-3.8-3.9C17.8,62.6,21.3,66.2,23.8,64.1z M22.5,11.2c4,0,7.7,1.6,10.4,4.3l0,0c2.7,2.7,4.3,6.3,4.3,10.3
		c0,7.2-5.4,11.9-10.4,16.1c-0.9,0.8-1.9,1.6-2.7,2.4c-1.1,1-2.9,1-3.9-0.1c-0.5-0.5-0.7-1.2-0.7-1.9v-2.1c-2.9-0.6-5.4-2.1-7.4-4.1
		c-2.6-2.7-4.2-6.2-4.2-10.2c0-4,1.6-7.7,4.3-10.3l0,0C14.8,12.9,18.5,11.2,22.5,11.2z M16.3,23.4c1.1,0,2.1,0.9,2.1,2.1
		c0,1.2-1,2.1-2.1,2.1c-1.1,0-2.1-0.9-2.1-2.1C14.2,24.3,15.2,23.4,16.3,23.4z M22.6,23.4c1.1,0,2.1,0.9,2.1,2.1
		c0,1.2-1,2.1-2.1,2.1c-1.1,0-2.1-0.9-2.1-2.1C20.5,24.3,21.5,23.4,22.6,23.4z M28.7,23.4c1.2,0,2.1,0.9,2.1,2.1
		c0,1.2-0.9,2.1-2.1,2.1c-1.1,0-2.1-0.9-2.1-2.1C26.6,24.3,27.6,23.4,28.7,23.4z M22.5,14c-6.5,0-11.9,5.3-11.9,11.9
		c0,6.4,5.1,11.7,11.5,11.9v4.6c5-4.6,12.3-9.2,12.3-16.5C34.4,19.3,29.1,14,22.5,14z"/>
</g>
</svg>
