<svg xmlns="http://www.w3.org/2000/svg" width="16" height="16" viewBox="0 0 16 16">
  <g id="Icon_-_" data-name="Icon - ?" transform="translate(0 0)">
    <path id="Exclusion_2" data-name="Exclusion 2" d="M13003-480a8.009,8.009,0,0,1-8-8,8.009,8.009,0,0,1,8-8,8.009,8.009,0,0,1,8,8A8.009,8.009,0,0,1,13003-480Zm.118-4.624a.842.842,0,0,0-.624.251.838.838,0,0,0-.248.6.8.8,0,0,0,.255.594.855.855,0,0,0,.617.251.823.823,0,0,0,.623-.258.848.848,0,0,0,.248-.6.83.83,0,0,0-.248-.6A.849.849,0,0,0,13003.117-484.624Zm0-6.658a1.437,1.437,0,0,1,1.021.372,1.3,1.3,0,0,1,.4.993,1.339,1.339,0,0,1-.189.748,2.552,2.552,0,0,1-.474.542l-.479.454a5.1,5.1,0,0,0-.4.408,2.689,2.689,0,0,0-.3.424,1.805,1.805,0,0,0-.189.493,2.716,2.716,0,0,0-.064.611v.624h1.221v-.454a2.866,2.866,0,0,1,.046-.545,1.4,1.4,0,0,1,.15-.4,1.587,1.587,0,0,1,.284-.356c.144-.136.289-.267.443-.4.185-.155.352-.309.507-.454a2.7,2.7,0,0,0,.4-.473,2.144,2.144,0,0,0,.251-.568,2.563,2.563,0,0,0,.092-.728,2.433,2.433,0,0,0-.209-1.032,2.106,2.106,0,0,0-.571-.754,2.552,2.552,0,0,0-.836-.46,3.26,3.26,0,0,0-1.022-.157,3.211,3.211,0,0,0-1.028.163,2.557,2.557,0,0,0-.85.473,2.616,2.616,0,0,0-.617.761,2.881,2.881,0,0,0-.326,1.006l1.247.144a1.716,1.716,0,0,1,.457-1.012A1.356,1.356,0,0,1,13003.117-491.282Z" transform="translate(-12994.999 496.001)" fill="#754995"/>
  </g>
</svg>
